{
  "accessors": [
    {
      "bufferView": 2,
      "componentType": 5126,
      "count": 330,
      "max": [
        0.2331237643957138,
        0.08221462368965149,
        0.8028649091720581
      ],
      "min": [
        -0.19117164611816406,
        -0.22263452410697937,
        0.4799067974090576
      ],
      "type": "VEC3"
    },
    {
      "bufferView": 2,
      "byteOffset": 3960,
      "componentType": 5126,
      "count": 330,
      "max": [
        0.9982929825782776,
        0.8923771381378174,
        0.9899687767028809
      ],
      "min": [
        -0.9528576135635376,
        -0.934849202632904,
        -0.9809088110923767
      ],
      "type": "VEC3"
    },
    {
      "bufferView": 1,
      "componentType": 5126,
      "count": 330,
      "max": [
        0.9966086149215698,
        0.9327319860458374
      ],
      "min": [
        0.005507707595825195,
        0.03346535563468933
      ],
      "type": "VEC2"
    },
    {
      "bufferView": 0,
      "componentType": 5125,
      "count": 330,
      "type": "SCALAR"
    },
    {
      "bufferView": 2,
      "byteOffset": 7920,
      "componentType": 5126,
      "count": 762,
      "max": [
        0.3532494306564331,
        0.3272971212863922,
        0.8351743817329407
      ],
      "min": [
        -0.19973762333393097,
        -0.2190074473619461,
        0.40463775396347046
      ],
      "type": "VEC3"
    },
    {
      "bufferView": 2,
      "byteOffset": 17064,
      "componentType": 5126,
      "count": 762,
      "max": [
        0.9880620241165161,
        0.992236316204071,
        0.9995766282081604
      ],
      "min": [
        -0.950596809387207,
        -0.9131308794021606,
        -0.9961618185043335
      ],
      "type": "VEC3"
    },
    {
      "bufferView": 1,
      "byteOffset": 2640,
      "componentType": 5126,
      "count": 762,
      "max": [
        0.9966086149215698,
        0.9327319860458374
      ],
      "min": [
        0.005507707595825195,
        0.03346535563468933
      ],
      "type": "VEC2"
    },
    {
      "bufferView": 0,
      "byteOffset": 1320,
      "componentType": 5125,
      "count": 762,
      "type": "SCALAR"
    },
    {
      "bufferView": 2,
      "byteOffset": 26208,
      "componentType": 5126,
      "count": 402,
      "max": [
        0.5059906244277954,
        0.39170610904693604,
        0.996069610118866
      ],
      "min": [
        -0.4712058901786804,
        -0.20257563889026642,
        0.7088003158569336
      ],
      "type": "VEC3"
    },
    {
      "bufferView": 2,
      "byteOffset": 31032,
      "componentType": 5126,
      "count": 402,
      "max": [
        0.9848440885543823,
        0.9475587010383606,
        0.9928153157234192
      ],
      "min": [
        -0.9871599674224854,
        -0.9704309701919556,
        -0.9983895421028137
      ],
      "type": "VEC3"
    },
    {
      "bufferView": 1,
      "byteOffset": 8736,
      "componentType": 5126,
      "count": 402,
      "max": [
        0.9966086149215698,
        0.9597181081771851
      ],
      "min": [
        0.005507707595825195,
        0.03346535563468933
      ],
      "type": "VEC2"
    },
    {
      "bufferView": 0,
      "byteOffset": 4368,
      "componentType": 5125,
      "count": 402,
      "type": "SCALAR"
    },
    {
      "bufferView": 2,
      "byteOffset": 35856,
      "componentType": 5126,
      "count": 3420,
      "max": [
        0.36828720569610596,
        0.2980005741119385,
        0.8522976040840149
      ],
      "min": [
        -0.3289349675178528,
        -0.15696461498737335,
        -0.02414420247077942
      ],
      "type": "VEC3"
    },
    {
      "bufferView": 2,
      "byteOffset": 76896,
      "componentType": 5126,
      "count": 3420,
      "max": [
        0.993550717830658,
        0.9895932674407959,
        0.9929364323616028
      ],
      "min": [
        -0.993550717830658,
        -0.9895932674407959,
        -0.9933388233184814
      ],
      "type": "VEC3"
    },
    {
      "bufferView": 1,
      "byteOffset": 11952,
      "componentType": 5126,
      "count": 3420,
      "max": [
        1.0,
        1.0
      ],
      "min": [
        0.0,
        0.0
      ],
      "type": "VEC2"
    },
    {
      "bufferView": 0,
      "byteOffset": 5976,
      "componentType": 5125,
      "count": 7776,
      "type": "SCALAR"
    }
  ],
  "asset": {
    "extras": {
      "author": "lucasbaze (https://sketchfab.com/lucasbaze)",
      "license": "CC-BY-4.0 (http://creativecommons.org/licenses/by/4.0/)",
      "source": "https://sketchfab.com/3d-models/low-poly-tree-fall-25d7e3bc78dc4813afc59a401736c91c",
      "title": "Low Poly Tree - Fall"
    },
    "generator": "Sketchfab-12.65.0",
    "version": "2.0"
  },
  "bufferViews": [
    {
      "buffer": 0,
      "byteLength": 37080,
      "name": "floatBufferViews",
      "target": 34963
    },
    {
      "buffer": 0,
      "byteLength": 39312,
      "byteOffset": 37080,
      "byteStride": 8,
      "name": "floatBufferViews",
      "target": 34962
    },
    {
      "buffer": 0,
      "byteLength": 117936,
      "byteOffset": 76392,
      "byteStride": 12,
      "name": "floatBufferViews",
      "target": 34962
    }
  ],
  "buffers": [
    {
      "byteLength": 194328,
      "uri": "scene.bin"
    }
  ],
  "materials": [
    {
      "doubleSided": true,
      "name": "Flat812444",
      "pbrMetallicRoughness": {
        "baseColorFactor": [
          0.505882,
          0.141176,
          0.266667,
          1.0
        ],
        "metallicFactor": 0.0
      }
    },
    {
      "doubleSided": true,
      "name": "FlatCA5732",
      "pbrMetallicRoughness": {
        "baseColorFactor": [
          0.792157,
          0.341177,
          0.196078,
          1.0
        ],
        "metallicFactor": 0.0
      }
    },
    {
      "doubleSided": true,
      "name": "FlatE68945",
      "pbrMetallicRoughness": {
        "baseColorFactor": [
          0.901961,
          0.537255,
          0.270588,
          1.0
        ],
        "metallicFactor": 0.0
      }
    },
    {
      "doubleSided": true,
      "name": "Standard713F25",
      "pbrMetallicRoughness": {
        "baseColorFactor": [
          0.443137,
          0.247059,
          0.145098,
          1.0
        ],
        "metallicFactor": 0.0
      }
    }
  ],
  "meshes": [
    {
      "name": "Object_0",
      "primitives": [
        {
          "attributes": {
            "NORMAL": 1,
            "POSITION": 0,
            "TEXCOORD_0": 2
          },
          "indices": 3,
          "material": 0,
          "mode": 4
        }
      ]
    },
    {
      "name": "Object_1",
      "primitives": [
        {
          "attributes": {
            "NORMAL": 5,
            "POSITION": 4,
            "TEXCOORD_0": 6
          },
          "indices": 7,
          "material": 1,
          "mode": 4
        }
      ]
    },
    {
      "name": "Object_2",
      "primitives": [
        {
          "attributes": {
            "NORMAL": 9,
            "POSITION": 8,
            "TEXCOORD_0": 10
          },
          "indices": 11,
          "material": 2,
          "mode": 4
        }
      ]
    },
    {
      "name": "Object_3",
      "primitives": [
        {
          "attributes": {
            "NORMAL": 13,
            "POSITION": 12,
            "TEXCOORD_0": 14
          },
          "indices": 15,
          "material": 3,
          "mode": 4
        }
      ]
    }
  ],
  "nodes": [
    {
      "children": [
        1
      ],
      "matrix": [
        1.0,
        0.0,
        0.0,
        0.0,
        0.0,
        2.220446049250313e-16,
        -1.0,
        0.0,
        0.0,
        1.0,
        2.220446049250313e-16,
        0.0,
        0.0,
        0.0,
        0.0,
        1.0
      ],
      "name": "Sketchfab_model"
    },
    {
      "children": [
        2,
        3,
        4,
        5
      ],
      "name": "low_poly_fall_tree.obj.cleaner.materialmerger.gles"
    },
    {
      "mesh": 0,
      "name": "Object_2"
    },
    {
      "mesh": 1,
      "name": "Object_3"
    },
    {
      "mesh": 2,
      "name": "Object_4"
    },
    {
      "mesh": 3,
      "name": "Object_5"
    }
  ],
  "scene": 0,
  "scenes": [
    {
      "name": "Sketchfab_Scene",
      "nodes": [
        0
      ]
    }
  ]
}
