{
  "accessors": [
    {
      "bufferView": 3,
      "componentType": 5126,
      "count": 1598,
      "max": [
        3.4662723541259766,
        7.884847164154053,
        1.1923978328704834
      ],
      "min": [
        -3.4701414108276367,
        -7.884846210479736,
        -1.1923978328704834
      ],
      "type": "VEC3"
    },
    {
      "bufferView": 3,
      "byteOffset": 19176,
      "componentType": 5126,
      "count": 1598,
      "max": [
        1.0,
        1.0,
        1.0
      ],
      "min": [
        -1.0,
        -1.0,
        -1.0
      ],
      "type": "VEC3"
    },
    {
      "bufferView": 2,
      "componentType": 5126,
      "count": 1598,
      "max": [
        0.9964408278465271,
        0.9962805509567261
      ],
      "min": [
        0.003559163073077798,
        0.003719407832249999
      ],
      "type": "VEC2"
    },
    {
      "bufferView": 1,
      "componentType": 5125,
      "count": 5400,
      "type": "SCALAR"
    },
    {
      "bufferView": 5,
      "componentType": 5126,
      "count": 7,
      "max": [
        100.0,
        0.0,
        0.0,
        0.0,
        0.0,
        100.00000762939453,
        0.0,
        0.0,
        0.0,
        0.0,
        100.00000762939453,
        0.0,
        2.5043113231658936,
        7.542896747589111,
        1.1894142627716064,
        1.0
      ],
      "min": [
        1.0,
        0.0,
        0.0,
        0.0,
        0.0,
        1.0,
        0.0,
        0.0,
        0.0,
        0.0,
        1.0,
        0.0,
        -3.368950605392456,
        -4.541337013244629,
        -0.0321621298789978,
        1.0
      ],
      "type": "MAT4"
    },
    {
      "bufferView": 0,
      "componentType": 5123,
      "count": 1598,
      "type": "VEC4"
    },
    {
      "bufferView": 4,
      "componentType": 5126,
      "count": 1598,
      "max": [
        1.0,
        0.0,
        0.0,
        0.0
      ],
      "min": [
        1.0,
        0.0,
        0.0,
        0.0
      ],
      "type": "VEC4"
    },
    {
      "bufferView": 6,
      "componentType": 5126,
      "count": 63,
      "max": [
        2.2916667461395264
      ],
      "min": [
        0.0
      ],
      "type": "SCALAR"
    },
    {
      "bufferView": 7,
      "componentType": 5126,
      "count": 63,
      "max": [
        0.7071068286895752,
        0.4957717955112457,
        0.5213338732719421,
        0.7071067094802856
      ],
      "min": [
        -0.4985945224761963,
        -0.5213338136672974,
        -0.4957718551158905,
        -0.4985944330692291
      ],
      "type": "VEC4"
    },
    {
      "bufferView": 6,
      "byteOffset": 252,
      "componentType": 5126,
      "count": 68,
      "max": [
        2.2916667461395264
      ],
      "min": [
        0.0
      ],
      "type": "SCALAR"
    },
    {
      "bufferView": 7,
      "byteOffset": 1008,
      "componentType": 5126,
      "count": 68,
      "max": [
        0.7071068286895752,
        0.030843544751405716,
        0.5212045907974243,
        0.7071067094802856
      ],
      "min": [
        0.47785550355911255,
        -0.5212044715881348,
        -0.030843548476696014,
        0.4778554141521454
      ],
      "type": "VEC4"
    }
  ],
  "animations": [
    {
      "channels": [
        {
          "sampler": 0,
          "target": {
            "node": 9,
            "path": "rotation"
          }
        },
        {
          "sampler": 1,
          "target": {
            "node": 11,
            "path": "rotation"
          }
        }
      ],
      "name": "Armature|Play",
      "samplers": [
        {
          "input": 7,
          "interpolation": "LINEAR",
          "output": 8
        },
        {
          "input": 9,
          "interpolation": "LINEAR",
          "output": 10
        }
      ]
    }
  ],
  "asset": {
    "extras": {
      "author": "Mylom (https://sketchfab.com/Mylom)",
      "license": "CC-BY-4.0 (http://creativecommons.org/licenses/by/4.0/)",
      "source": "https://sketchfab.com/3d-models/simple-mailbox-22b634e46c054081adda3a4b3b8a3894",
      "title": "simple-mailbox"
    },
    "generator": "Sketchfab-16.33.0",
    "version": "2.0"
  },
  "bufferViews": [
    {
      "buffer": 0,
      "byteLength": 12784,
      "byteStride": 8,
      "name": "shortBufferViews",
      "target": 34962
    },
    {
      "buffer": 0,
      "byteLength": 21600,
      "byteOffset": 12784,
      "name": "floatBufferViews",
      "target": 34963
    },
    {
      "buffer": 0,
      "byteLength": 12784,
      "byteOffset": 34384,
      "byteStride": 8,
      "name": "floatBufferViews",
      "target": 34962
    },
    {
      "buffer": 0,
      "byteLength": 38352,
      "byteOffset": 47168,
      "byteStride": 12,
      "name": "floatBufferViews",
      "target": 34962
    },
    {
      "buffer": 0,
      "byteLength": 25568,
      "byteOffset": 85520,
      "byteStride": 16,
      "name": "floatBufferViews",
      "target": 34962
    },
    {
      "buffer": 0,
      "byteLength": 448,
      "byteOffset": 111088,
      "name": "floatBufferViews"
    },
    {
      "buffer": 0,
      "byteLength": 524,
      "byteOffset": 111536,
      "name": "floatBufferViews"
    },
    {
      "buffer": 0,
      "byteLength": 2096,
      "byteOffset": 112060,
      "byteStride": 16,
      "name": "floatBufferViews"
    }
  ],
  "buffers": [
    {
      "byteLength": 114156,
      "uri": "scene.bin"
    }
  ],
  "images": [
    {
      "uri": "textures/Scene_-_Root_baseColor.jpeg"
    }
  ],
  "materials": [
    {
      "doubleSided": true,
      "name": "Scene_-_Root",
      "pbrMetallicRoughness": {
        "baseColorTexture": {
          "index": 0
        },
        "metallicFactor": 0.0,
        "roughnessFactor": 0.6
      }
    }
  ],
  "meshes": [
    {
      "name": "Mail-Box__0",
      "primitives": [
        {
          "attributes": {
            "JOINTS_0": 5,
            "NORMAL": 1,
            "POSITION": 0,
            "TEXCOORD_0": 2,
            "WEIGHTS_0": 6
          },
          "indices": 3,
          "material": 0,
          "mode": 4
        }
      ]
    }
  ],
  "nodes": [
    {
      "children": [
        1
      ],
      "matrix": [
        1.0,
        0.0,
        0.0,
        0.0,
        0.0,
        2.220446049250313e-16,
        -1.0,
        0.0,
        0.0,
        1.0,
        2.220446049250313e-16,
        0.0,
        0.0,
        0.0,
        0.0,
        1.0
      ],
      "name": "Sketchfab_model"
    },
    {
      "children": [
        2
      ],
      "matrix": [
        0.009999999776482582,
        0.0,
        0.0,
        0.0,
        0.0,
        0.0,
        0.009999999776482582,
        0.0,
        0.0,
        -0.009999999776482582,
        0.0,
        0.0,
        0.0,
        0.0,
        0.0,
        1.0
      ],
      "name": "mail.fbx"
    },
    {
      "children": [
        3
      ],
      "name": "Object_2"
    },
    {
      "children": [
        4,
        15
      ],
      "name": "RootNode"
    },
    {
      "children": [
        5
      ],
      "name": "Armature",
      "rotation": [
        -0.7071068286895752,
        0.0,
        0.0,
        0.7071067094802856
      ],
      "scale": [
        100.0,
        100.0,
        100.0
      ],
      "translation": [
        43.231964111328125,
        -17.28801727294922,
        -57.86260223388672
      ]
    },
    {
      "children": [
        6,
        14,
        13
      ],
      "name": "Object_5"
    },
    {
      "children": [
        7,
        9,
        11
      ],
      "name": "_rootJoint"
    },
    {
      "children": [
        8
      ],
      "name": "Bone_00",
      "rotation": [
        0.7071067094802856,
        0.0,
        0.0,
        0.7071068286895752
      ],
      "scale": [
        1.0,
        0.9999999403953552,
        0.9999999403953552
      ],
      "translation": [
        -2.936630964279175,
        -0.5786260366439819,
        -7.370016098022461
      ]
    },
    {
      "name": "Bone_end_03",
      "rotation": [
        -5.293955920339377e-23,
        -0.0,
        0.0,
        1.0
      ],
      "translation": [
        0.0,
        14.740032196044922,
        -4.235164736271502e-22
      ]
    },
    {
      "children": [
        10
      ],
      "name": "Bone.001_01",
      "rotation": [
        0.7071068286895752,
        0.0,
        0.0,
        0.7071067094802856
      ],
      "translation": [
        2.934925079345703,
        -0.6107881665229797,
        3.160470962524414
      ]
    },
    {
      "name": "Bone.001_end_04",
      "translation": [
        0.0,
        2.7061901092529297,
        0.0
      ]
    },
    {
      "children": [
        12
      ],
      "name": "Bone.002_02",
      "rotation": [
        0.7071068286895752,
        0.0,
        0.0,
        0.7071067094802856
      ],
      "translation": [
        2.0533812046051025,
        0.6107882261276245,
        4.714217185974121
      ]
    },
    {
      "name": "Bone.002_end_05",
      "translation": [
        0.0,
        2.52346134185791,
        0.0
      ]
    },
    {
      "matrix": [
        100.0,
        0.0,
        0.0,
        0.0,
        0.0,
        6.123234258517405e-15,
        -100.00000429153351,
        0.0,
        0.0,
        100.00000429153351,
        6.123234258517405e-15,
        0.0,
        4.291534423828125e-05,
        5.3078481869306415e-05,
        0.0,
        1.0
      ],
      "name": "Object_13"
    },
    {
      "mesh": 0,
      "name": "Object_14",
      "skin": 0
    },
    {
      "name": "Mail-Box",
      "rotation": [
        -0.7071068286895752,
        0.0,
        0.0,
        0.7071067094802856
      ],
      "scale": [
        100.0,
        100.0,
        100.0
      ],
      "translation": [
        2.384185791015625e-05,
        4.76837158203125e-05,
        0.0
      ]
    }
  ],
  "samplers": [
    {
      "magFilter": 9729,
      "minFilter": 9987,
      "wrapS": 10497,
      "wrapT": 10497
    }
  ],
  "scene": 0,
  "scenes": [
    {
      "name": "Sketchfab_Scene",
      "nodes": [
        0
      ]
    }
  ],
  "skins": [
    {
      "inverseBindMatrices": 4,
      "joints": [
        6,
        7,
        8,
        9,
        10,
        11,
        12
      ],
      "skeleton": 6
    }
  ],
  "textures": [
    {
      "sampler": 0,
      "source": 0
    }
  ]
}
